# xmcd
#
# Track frame offsets:
#	150
#	13000
#	24295
#	36776
#	49296
#	61713
#	74033
#	86348
#	98953
#	111669
#	124439
#	136187
#	147931
#	160253
#	172502
#	185217
#	198497
#	210339
#	223391
#	236006
#	248168
#	261651
#	274270
#	285871
#	297856
#
# Disc length: 4144 seconds
#
# Revision: 1
# Processed by: cddbd v1.5.2PL0 Copyright (c) Steve Scherf et al.
# Submitted via: audiograbber 1.83.01
#
DISCID=83102e19
DTITLE=Various Artist - Boogie Uproar - Gems From The Peacock Vaults  [CD2)
DYEAR=2014
DGENRE=Oldies
TTITLE0=Willie Mae 'Big Mama' Thornton With Kansas City Bill and Orchestra - Houn
TTITLE0=d Dog 
TTITLE1=Sonny Parker With Gladys Hampton's Blues Boys - Money Ain't Everything 
TTITLE2=Elmore Nixon, Henry Hayes and His Four Kings - Alabama Blues 
TTITLE3=R.B. Thibadeaux - R.B. Boogie 
TTITLE4=Jimmy McCracklin and His Orchestra - She Felt Too Good 
TTITLE5=Andrew Tibbs and Cherokee Conyer's Orchestra - Rock Savoy, Rock 
TTITLE6=Floyd Dixon - We'll Be Together 
TTITLE7=Marie Adams - Ain't Car Crazy 
TTITLE8=Clarence 'Gatemouth' Brown - I've Been Mistreated
TTITLE9=Memphis Slim and His Orchestra - Mean Little Woman 
TTITLE10=Johnny Otis Orchestra - Rock Me Baby 
TTITLE11=Silver Cooks and The Gondoliers - Mr Ticket Agent 
TTITLE12=Walter Brown and Mc Shann's Orchestra - The Search 
TTITLE13=Mildred Jones With The Bill Harvey Orchestra - It's Been A Long Time 
TTITLE14=Joe 'Papoose' Fritz - Summer's Coming On 
TTITLE15=Sister Jessie Mae Renfro - Rock Of Ages (Hide Thou Me) 
TTITLE16=Paul Monday With The Bill Harvey Orchestra - Irene's Boogie 
TTITLE17=Willie Holiday - I've Played This Town 
TTITLE18=Willie Mae 'Big Mama' Thornton and Bill Harvey's Orchestra - Cotton Pick
TTITLE18=ing Blues 
TTITLE19=Clarence 'Gatemouth' Brown - Baby Take It Easy 
TTITLE20=Memphis Slim and His Orchestra - Sitting And Thinking 
TTITLE21=Golden Harp Gospel Singers - Calling Jesus, My Rock 
TTITLE22=Gwen Johnson With Quinton Batiste and Orchestra - New Orleans 
TTITLE23=Robert Ketchum - She's Gone From Me 
TTITLE24=Floyd Dixon - Rockin' At Home 
EXTD=
EXTT0=
EXTT1=
EXTT2=
EXTT3=
EXTT4=
EXTT5=
EXTT6=
EXTT7=
EXTT8=
EXTT9=
EXTT10=
EXTT11=
EXTT12=
EXTT13=
EXTT14=
EXTT15=
EXTT16=
EXTT17=
EXTT18=
EXTT19=
EXTT20=
EXTT21=
EXTT22=
EXTT23=
EXTT24=
PLAYORDER=
